<mxfile host="app.diagrams.net" modified="2024-02-14T09:56:38.509Z" agent="Mozilla/5.0 (Macintosh; Intel Mac OS X 10_15_7) AppleWebKit/537.36 (KHTML, like Gecko) Chrome/121.0.0.0 Safari/537.36 Edg/121.0.0.0" etag="17ZhrAhFRjzsvGEjNGeT" version="23.1.4" type="github">
  <diagram name="Page-1" id="cQvFQ-0HM0ZAxjRs54Qi">
    <mxGraphModel dx="1017" dy="1775" grid="1" gridSize="10" guides="1" tooltips="1" connect="1" arrows="1" fold="1" page="1" pageScale="1" pageWidth="850" pageHeight="1100" math="0" shadow="0">
      <root>
        <mxCell id="0" />
        <mxCell id="1" parent="0" />
        <mxCell id="A6ykILbXWkgTWiZy75XN-31" value="" style="rounded=0;whiteSpace=wrap;html=1;" vertex="1" parent="1">
          <mxGeometry x="40" y="-679" width="660" height="449" as="geometry" />
        </mxCell>
        <mxCell id="A6ykILbXWkgTWiZy75XN-21" value="" style="rounded=0;whiteSpace=wrap;html=1;" vertex="1" parent="1">
          <mxGeometry x="209" y="-470" width="220" height="130" as="geometry" />
        </mxCell>
        <mxCell id="A6ykILbXWkgTWiZy75XN-5" value="" style="outlineConnect=0;dashed=0;verticalLabelPosition=bottom;verticalAlign=top;align=center;html=1;shape=mxgraph.aws3.application_load_balancer;fillColor=#F58534;gradientColor=none;direction=south;rotation=-90;" vertex="1" parent="1">
          <mxGeometry x="340" y="-619" width="72" height="69" as="geometry" />
        </mxCell>
        <mxCell id="A6ykILbXWkgTWiZy75XN-7" value="prd-http-redirector-alb" style="text;html=1;align=center;verticalAlign=middle;resizable=0;points=[];autosize=1;strokeColor=none;fillColor=none;" vertex="1" parent="1">
          <mxGeometry x="305.5" y="-651" width="140" height="30" as="geometry" />
        </mxCell>
        <mxCell id="A6ykILbXWkgTWiZy75XN-8" value="" style="outlineConnect=0;dashed=0;verticalLabelPosition=bottom;verticalAlign=top;align=center;html=1;shape=mxgraph.aws3.route_53;fillColor=#F58536;gradientColor=none;" vertex="1" parent="1">
          <mxGeometry x="110" y="-630" width="60.5" height="80.5" as="geometry" />
        </mxCell>
        <mxCell id="A6ykILbXWkgTWiZy75XN-9" value="Route 53" style="text;html=1;align=center;verticalAlign=middle;resizable=0;points=[];autosize=1;strokeColor=none;fillColor=none;" vertex="1" parent="1">
          <mxGeometry x="105.25" y="-549.5" width="70" height="30" as="geometry" />
        </mxCell>
        <mxCell id="A6ykILbXWkgTWiZy75XN-10" value="www.example.com" style="text;html=1;align=center;verticalAlign=middle;resizable=0;points=[];autosize=1;strokeColor=none;fillColor=none;" vertex="1" parent="1">
          <mxGeometry x="80.25" y="-670" width="120" height="30" as="geometry" />
        </mxCell>
        <mxCell id="A6ykILbXWkgTWiZy75XN-11" value="" style="endArrow=classic;html=1;rounded=0;" edge="1" parent="1">
          <mxGeometry width="50" height="50" relative="1" as="geometry">
            <mxPoint x="190" y="-584" as="sourcePoint" />
            <mxPoint x="320" y="-584.5" as="targetPoint" />
          </mxGeometry>
        </mxCell>
        <mxCell id="A6ykILbXWkgTWiZy75XN-12" value="" style="image;aspect=fixed;html=1;points=[];align=center;fontSize=12;image=img/lib/azure2/app_services/App_Service_Certificates.svg;" vertex="1" parent="1">
          <mxGeometry x="355.63" y="-538" width="43.75" height="40" as="geometry" />
        </mxCell>
        <mxCell id="A6ykILbXWkgTWiZy75XN-14" value="" style="outlineConnect=0;dashed=0;verticalLabelPosition=bottom;verticalAlign=top;align=center;html=1;shape=mxgraph.aws3.ecs;fillColor=#F58534;gradientColor=none;" vertex="1" parent="1">
          <mxGeometry x="520" y="-616" width="62" height="61.5" as="geometry" />
        </mxCell>
        <mxCell id="A6ykILbXWkgTWiZy75XN-15" value="" style="endArrow=classic;html=1;rounded=0;" edge="1" parent="1">
          <mxGeometry width="50" height="50" relative="1" as="geometry">
            <mxPoint x="420" y="-584" as="sourcePoint" />
            <mxPoint x="500" y="-584" as="targetPoint" />
          </mxGeometry>
        </mxCell>
        <mxCell id="A6ykILbXWkgTWiZy75XN-16" value="ECS Cluster" style="text;html=1;align=center;verticalAlign=middle;resizable=0;points=[];autosize=1;strokeColor=none;fillColor=none;" vertex="1" parent="1">
          <mxGeometry x="503" y="-549.5" width="90" height="30" as="geometry" />
        </mxCell>
        <mxCell id="A6ykILbXWkgTWiZy75XN-17" value="" style="shape=image;html=1;verticalAlign=top;verticalLabelPosition=bottom;labelBackgroundColor=#ffffff;imageAspect=0;aspect=fixed;image=https://cdn4.iconfinder.com/data/icons/socialcones/508/Gitlab-128.png" vertex="1" parent="1">
          <mxGeometry x="246" y="-449" width="55.63" height="55.63" as="geometry" />
        </mxCell>
        <mxCell id="A6ykILbXWkgTWiZy75XN-18" value="" style="sketch=0;outlineConnect=0;fontColor=#232F3E;gradientColor=none;fillColor=#7AA116;strokeColor=none;dashed=0;verticalLabelPosition=bottom;verticalAlign=top;align=center;html=1;fontSize=12;fontStyle=0;aspect=fixed;pointerEvents=1;shape=mxgraph.aws4.iot_analytics_pipeline;" vertex="1" parent="1">
          <mxGeometry x="326" y="-442.18" width="78" height="42" as="geometry" />
        </mxCell>
        <mxCell id="A6ykILbXWkgTWiZy75XN-19" value="http redirector repo&lt;br&gt;GitLab" style="text;html=1;align=center;verticalAlign=middle;resizable=0;points=[];autosize=1;strokeColor=none;fillColor=none;" vertex="1" parent="1">
          <mxGeometry x="210" y="-387" width="120" height="40" as="geometry" />
        </mxCell>
        <mxCell id="A6ykILbXWkgTWiZy75XN-20" value="Runs pipepline&amp;nbsp;&lt;br&gt;one merge" style="text;html=1;align=center;verticalAlign=middle;resizable=0;points=[];autosize=1;strokeColor=none;fillColor=none;" vertex="1" parent="1">
          <mxGeometry x="316" y="-387" width="110" height="40" as="geometry" />
        </mxCell>
        <mxCell id="A6ykILbXWkgTWiZy75XN-22" value="Amazon ECR" style="sketch=0;outlineConnect=0;fontColor=#232F3E;gradientColor=none;strokeColor=#ffffff;fillColor=#232F3E;dashed=0;verticalLabelPosition=middle;verticalAlign=bottom;align=center;html=1;whiteSpace=wrap;fontSize=10;fontStyle=1;spacing=3;shape=mxgraph.aws4.productIcon;prIcon=mxgraph.aws4.ecr;" vertex="1" parent="1">
          <mxGeometry x="518" y="-442.18" width="60" height="89" as="geometry" />
        </mxCell>
        <mxCell id="A6ykILbXWkgTWiZy75XN-23" value="" style="endArrow=classic;html=1;rounded=0;exitX=1;exitY=0.5;exitDx=0;exitDy=0;" edge="1" parent="1" source="A6ykILbXWkgTWiZy75XN-21">
          <mxGeometry width="50" height="50" relative="1" as="geometry">
            <mxPoint x="430" y="-420" as="sourcePoint" />
            <mxPoint x="510" y="-405" as="targetPoint" />
          </mxGeometry>
        </mxCell>
        <mxCell id="A6ykILbXWkgTWiZy75XN-24" value="Image&amp;nbsp;&lt;br&gt;Push" style="text;html=1;align=center;verticalAlign=middle;resizable=0;points=[];autosize=1;strokeColor=none;fillColor=none;" vertex="1" parent="1">
          <mxGeometry x="439" y="-403" width="60" height="40" as="geometry" />
        </mxCell>
        <mxCell id="A6ykILbXWkgTWiZy75XN-25" value="" style="endArrow=classic;html=1;rounded=0;" edge="1" parent="1">
          <mxGeometry width="50" height="50" relative="1" as="geometry">
            <mxPoint x="549" y="-460" as="sourcePoint" />
            <mxPoint x="549" y="-520" as="targetPoint" />
          </mxGeometry>
        </mxCell>
        <mxCell id="A6ykILbXWkgTWiZy75XN-26" value="" style="verticalLabelPosition=bottom;html=1;verticalAlign=top;align=center;strokeColor=none;fillColor=#00BEF2;shape=mxgraph.azure.cloud_services_configuration_file;pointerEvents=1;" vertex="1" parent="1">
          <mxGeometry x="253" y="-293" width="47.5" height="50" as="geometry" />
        </mxCell>
        <mxCell id="A6ykILbXWkgTWiZy75XN-27" value="vhost.conf&lt;br&gt;redirects.conf" style="text;html=1;align=center;verticalAlign=middle;resizable=0;points=[];autosize=1;strokeColor=none;fillColor=none;" vertex="1" parent="1">
          <mxGeometry x="293" y="-287" width="100" height="40" as="geometry" />
        </mxCell>
        <mxCell id="A6ykILbXWkgTWiZy75XN-28" value="" style="endArrow=classic;html=1;rounded=0;" edge="1" parent="1">
          <mxGeometry width="50" height="50" relative="1" as="geometry">
            <mxPoint x="326" y="-293" as="sourcePoint" />
            <mxPoint x="326" y="-330" as="targetPoint" />
          </mxGeometry>
        </mxCell>
        <mxCell id="A6ykILbXWkgTWiZy75XN-29" value="Push" style="text;html=1;align=center;verticalAlign=middle;resizable=0;points=[];autosize=1;strokeColor=none;fillColor=none;" vertex="1" parent="1">
          <mxGeometry x="325" y="-332" width="50" height="30" as="geometry" />
        </mxCell>
        <mxCell id="A6ykILbXWkgTWiZy75XN-32" value="&lt;font style=&quot;font-size: 16px;&quot;&gt;&lt;b&gt;HTTP Redirector&lt;/b&gt;&lt;/font&gt;" style="rounded=0;whiteSpace=wrap;html=1;strokeWidth=1;" vertex="1" parent="1">
          <mxGeometry x="552" y="-679" width="148" height="36" as="geometry" />
        </mxCell>
      </root>
    </mxGraphModel>
  </diagram>
</mxfile>
